<svg width="50" height="51" viewBox="0 0 50 51" fill="none" xmlns="http://www.w3.org/2000/svg">
<path fill-rule="evenodd" clip-rule="evenodd" d="M50 0C36.193 0 25.0047 11.4195 25.0047 25.5H0V51C13.807 51 25.0047 39.5805 25.0047 25.5H50V0Z" fill="#0494B4"/>
<path fill-rule="evenodd" clip-rule="evenodd" d="M9.5095 0C4.256 0 0 4.25387 0 9.49525C0 14.7366 4.256 19 9.5 19C14.744 19 19 14.7461 19 9.49525C19 4.24438 14.7535 0 9.5095 0Z" fill="#44DAD3"/>
<path fill-rule="evenodd" clip-rule="evenodd" d="M40.5 32C35.256 32 31 36.2539 31 41.4953C31 46.7366 35.256 51 40.5 51C45.744 51 50 46.7461 50 41.4953C50 36.2444 45.744 32 40.5 32Z" fill="#44DAD3"/>
</svg>
