<svg width="296" height="54" viewBox="0 0 296 54" fill="none" xmlns="http://www.w3.org/2000/svg">
<g clip-path="url(#clip0_1289_312)">
<path fill-rule="evenodd" clip-rule="evenodd" d="M53.27 0C38.56 0 26.64 11.93 26.64 26.64H0V53.28C14.71 53.28 26.64 41.35 26.64 26.64H53.27V0Z" fill="#0494B4"/>
<path fill-rule="evenodd" clip-rule="evenodd" d="M10.01 0C4.48 0 0 4.48 0 10C0 15.52 4.48 20.01 10 20.01C15.52 20.01 20 15.53 20 10C20 4.47 15.53 0 10.01 0Z" fill="#44DAD3"/>
<path fill-rule="evenodd" clip-rule="evenodd" d="M43.27 33.27C37.75 33.27 33.27 37.75 33.27 43.27C33.27 48.79 37.75 53.28 43.27 53.28C48.79 53.28 53.27 48.8 53.27 43.27C53.27 37.74 48.79 33.27 43.27 33.27Z" fill="#44DAD3"/>
<path d="M265.72 27.67C266.35 23.09 270.14 20.24 275.52 20.24C280.9 20.24 284.53 23.32 285 27.67H265.72ZM294.72 34.47L295.11 31.47C296.53 19.85 288 11.01 275.36 11.01C262.72 11.01 254.5 19.54 254.5 31.55C254.5 43.56 263.19 52.25 275.83 52.25C282.14 52.25 287.93 50.1 291.9 45.92L285.78 38.81C282.86 41.58 279.3 42.76 275.9 42.76C270.29 42.76 266.26 39.6 265.71 34.46H294.71L294.72 34.47Z" fill="white"/>
<path d="M251.01 1.04999H240.26V51.37H251.01V1.04999Z" fill="white"/>
<path d="M226.19 1.04999H215.29V38.97C215.29 43.41 216.3 46.59 218.23 48.72C221.88 52.75 230.63 53.01 235.52 51.37V41.73C233.01 42.6 227.94 43.33 226.68 40.28C226.35 39.48 226.19 38.43 226.19 37.07V21.98H235.51V11.87H226.19V1.04999Z" fill="white"/>
<path d="M204.85 23.64L210.78 17.08C206.59 12.89 200.82 11 194.82 11C185.58 11 180.6 15.82 180.6 22.69C180.6 29.56 185.18 32.88 192.37 35.1C198.14 36.84 200.19 37.79 200.19 40.08C200.19 42.13 198.45 43.32 194.98 43.32C191.98 43.32 187.87 42.53 184.39 39.29L179.18 46.48C183.68 50.51 189.45 52.25 195.3 52.25C204.7 52.25 211.26 47.51 211.26 39.69C211.26 32.66 205.57 29.97 198.14 27.68C193.79 26.34 191.42 25.31 191.42 22.62C191.42 20.8 192.61 19.78 195.77 19.78C198.93 19.78 201.93 20.89 204.86 23.65" fill="white"/>
<path d="M70.43 0.959991V11.86H85.84V51.37H97.53V11.86H112.94V0.959991H70.43Z" fill="white"/>
<path d="M112.94 11.86V51.37H123.69V34.22C123.69 24.84 129.89 22.36 136.79 22.48V11.19C130.83 11.6 125.11 13.92 122.9 19.05V11.86H112.94Z" fill="white"/>
<path d="M148.77 27.67C149.4 23.09 153.19 20.24 158.57 20.24C163.95 20.24 167.58 23.32 168.05 27.67H148.77ZM177.77 34.47L178.16 31.47C179.58 19.85 171.05 11.01 158.41 11.01C145.77 11.01 137.55 19.54 137.55 31.55C137.55 43.56 146.24 52.25 158.88 52.25C165.19 52.25 170.98 50.1 174.95 45.92L168.83 38.81C165.91 41.58 162.35 42.76 158.95 42.76C153.34 42.76 149.31 39.6 148.76 34.46H177.76L177.77 34.47Z" fill="white"/>
</g>
<defs>
<clipPath id="clip0_1289_312">
<rect width="295.26" height="53.27" fill="white"/>
</clipPath>
</defs>
</svg>
